<svg xmlns="http://www.w3.org/2000/svg" width="24.497" height="25.257" viewBox="0 0 24.497 25.257">
  <g id="Group_326" data-name="Group 326" transform="translate(-5796.134 -5270.635)" opacity="0.8">
    <g id="Group_325" data-name="Group 325">
      <path id="Path_146" data-name="Path 146" d="M5808.123,5295.892h-.023a4.359,4.359,0,0,1-3.351-1.883c-1.173-.062-2.216-.156-3.18-.287a26.529,26.529,0,0,1-2.634-.52c-.089-.021-.177-.047-.266-.072-.073-.021-.147-.044-.222-.058a2.846,2.846,0,0,1-1.977-1.589,3.153,3.153,0,0,1,.009-2.851,11.7,11.7,0,0,1,1.089-1.655c.163-.218.325-.436.479-.66a12,12,0,0,0,1.709-3.794,10.53,10.53,0,0,0,.277-2.149,7.947,7.947,0,0,1,2.922-5.715,8.193,8.193,0,0,1,2-1.307,3.5,3.5,0,0,1,6.833.006,8.719,8.719,0,0,1,4.569,5.015,8.229,8.229,0,0,1,.4,2.569,10.2,10.2,0,0,0,1.11,3.951,13.657,13.657,0,0,0,1.41,2.213l.306.422a5.352,5.352,0,0,1,.97,1.91,3.1,3.1,0,0,1-2.093,3.59,25.92,25.92,0,0,1-4.558.839c-.438.04-.877.068-1.315.1l-.493.032a4.628,4.628,0,0,1-3.951,1.9Zm4.156-2.171h0Zm-3.871-20.851a1.264,1.264,0,0,0-1.288,1.1,1.52,1.52,0,0,1-.98,1.308,5.936,5.936,0,0,0-1.707,1.061,5.732,5.732,0,0,0-2.168,4.14,12.546,12.546,0,0,1-.346,2.611,14.244,14.244,0,0,1-2.029,4.5c-.17.249-.35.49-.53.731a9.9,9.9,0,0,0-.892,1.339.953.953,0,0,0,.009.847.678.678,0,0,0,.379.376,4.341,4.341,0,0,1,.431.107c.058.016.115.033.173.047a24.137,24.137,0,0,0,2.411.478c.988.134,2.071.228,3.314.285a1.542,1.542,0,0,1,1.271.753,2.185,2.185,0,0,0,1.712,1.112,2.4,2.4,0,0,0,2.21-1.112,1.554,1.554,0,0,1,1.25-.757c.273-.021.547-.038.82-.056.417-.026.834-.052,1.25-.091a23.638,23.638,0,0,0,4.163-.766.882.882,0,0,0,.52-.918,3.423,3.423,0,0,0-.61-1.124l-.3-.411a15.529,15.529,0,0,1-1.63-2.586,12.6,12.6,0,0,1-1.317-4.808,6.276,6.276,0,0,0-.267-1.89,6.515,6.515,0,0,0-3.641-3.861,1.576,1.576,0,0,1-.966-1.235,1.3,1.3,0,0,0-1.116-1.166C5808.493,5272.872,5808.45,5272.87,5808.408,5272.87Zm-3.514.888v0Z" fill="#dbddeb"/>
    </g>
  </g>
</svg>
