<?xml version="1.0" encoding="UTF-8"?>
<svg id="SVGDoc" width="70" height="70" xmlns="http://www.w3.org/2000/svg" version="1.1" xmlns:xlink="http://www.w3.org/1999/xlink" xmlns:avocode="https://avocode.com/" viewBox="0 0 70 70"><defs></defs><desc>Generated with Avocode.</desc><g><g><title>Group 1274</title><g><title>Path 783</title><path d="M34.71924,69.44699c-19.09131,-0.017 -34.61035,-15.60898 -34.58008,-34.742c0.02881,-19.095 15.61475,-34.59099 34.75977,-34.56099c19.08838,0.03 34.5752,15.62502 34.54199,34.78001c-0.03271,19.047 -15.61475,34.539 -34.72168,34.52298z" fill="#f5921c" fill-opacity="1"></path></g><g><title>Path 784</title><path d="M41.62305,55.409c-0.86914,0 -1.73877,0.02802 -2.60596,-0.01099c-0.49219,-0.022 -0.65918,0.14899 -0.7251,0.63098c-0.32764,2.40402 -0.71289,4.80099 -1.02979,7.207c-0.07617,0.578 -0.24902,0.71701 -0.82227,0.61401c-1.28174,-0.23001 -2.57568,-0.39902 -3.86865,-0.56302c-0.49219,-0.06198 -0.67529,-0.19699 -0.58398,-0.76199c0.37891,-2.34601 0.68066,-4.70398 1.04883,-7.05099c0.07813,-0.5 0.03809,-0.75 -0.53711,-0.80701c-0.91406,-0.09 -1.82471,-0.23199 -2.72998,-0.396c-0.49609,-0.09 -0.6709,0.06601 -0.73877,0.56c-0.31494,2.30402 -0.69434,4.599 -0.98437,6.90601c-0.08887,0.71201 -0.31396,0.87701 -1.01172,0.73999c-1.22705,-0.23999 -2.47314,-0.392 -3.71729,-0.53598c-0.5376,-0.06302 -0.66064,-0.258 -0.57471,-0.793c0.39209,-2.44702 0.72998,-4.90302 1.10986,-7.35101c0.07813,-0.49799 -0.00098,-0.71899 -0.56592,-0.797c-3.01318,-0.41299 -6.01709,-0.892 -9.02979,-1.298c-0.62939,-0.08398 -0.69727,-0.26898 -0.50244,-0.81699c0.53223,-1.49301 1.04102,-2.995 1.50537,-4.51001c0.1626,-0.534 0.40283,-0.64999 0.93066,-0.55801c0.95508,0.16702 1.92236,0.29401 2.88916,0.362c1.51904,0.10602 2.10303,-0.353 2.36084,-1.86899c0.28906,-1.68701 0.51904,-3.384 0.76807,-5.077c0.80322,-5.461 1.59326,-10.92401 2.41016,-16.38199c0.42578,-2.84702 -0.2832,-3.849 -3.13281,-4.29401c-0.7832,-0.12201 -1.56641,-0.25 -2.35303,-0.32901c-0.44727,-0.04498 -0.63623,-0.17599 -0.55615,-0.66599c0.22705,-1.38702 0.44092,-2.77701 0.60791,-4.172c0.0752,-0.62802 0.31201,-0.78601 0.93604,-0.68802c2.90186,0.45901 5.81494,0.854 8.7168,1.314c0.61816,0.09702 0.84424,-0.013 0.92822,-0.673c0.30322,-2.35699 0.68994,-4.70198 1.01221,-7.05699c0.06689,-0.48999 0.20068,-0.649 0.72266,-0.55699c1.28418,0.224 2.57617,0.409 3.87012,0.55499c0.60889,0.069 0.74219,0.319 0.65186,0.894c-0.354,2.246 -0.64697,4.50301 -1.01465,6.74699c-0.09619,0.58502 0.04492,0.759 0.61865,0.811c0.88916,0.08002 1.77197,0.23502 2.65234,0.39502c0.48682,0.08899 0.6748,-0.05402 0.74268,-0.556c0.31299,-2.30402 0.68018,-4.60101 0.98633,-6.90601c0.07178,-0.541 0.24365,-0.677 0.78076,-0.584c1.30908,0.22699 2.62695,0.40599 3.94482,0.569c0.49512,0.06099 0.62109,0.22899 0.53906,0.73999c-0.37891,2.37102 -0.69287,4.75301 -1.06885,7.12502c-0.08984,0.569 0.04492,0.81198 0.61621,0.96597c2.45801,0.664 4.79102,1.64203 6.93359,3.022c5.00098,3.22101 4.95801,11.25302 -0.05273,14.47202c-0.52393,0.336 -1.44385,0.505 -1.4541,1.05899c-0.00781,0.41202 0.95996,0.61401 1.48291,0.92599c3.39209,2.022 4.7793,5.035 4.16699,8.95901c-0.54687,3.50198 -1.71191,6.64398 -4.86768,8.664c-2.16211,1.384 -4.60742,1.75998 -7.10498,1.89398c-0.76514,0.04202 -1.5332,0.00702 -2.30127,0.00702z" fill="#fdfdf8" fill-opacity="1"></path></g><g><title>Path 785</title><path d="M38.12989,48.68201c-3.03662,-0.01901 -5.22559,-0.42102 -7.42676,-0.73001c-0.4292,-0.06 -0.54199,-0.24899 -0.479,-0.668c0.51514,-3.435 1.01709,-6.87201 1.51221,-10.31c0.05176,-0.36099 0.15186,-0.56 0.57373,-0.50299c3.01025,0.405 6.05322,0.65601 8.89404,1.86301c1.11084,0.47098 2.16211,1.03299 3.01514,1.922c2.28369,2.383 1.48877,6.31198 -1.55518,7.59097c-1.70801,0.71701 -3.521,0.81003 -4.53418,0.83502z" fill="#f5921c" fill-opacity="1"></path></g><g><title>Path 786</title><path d="M38.88526,31.89301c-2.12891,-0.01501 -3.94189,-0.306 -5.7583,-0.59201c-0.45068,-0.07098 -0.52881,-0.26498 -0.46875,-0.66501c0.46484,-3.10397 0.91992,-6.20999 1.37012,-9.31598c0.04395,-0.30301 0.15088,-0.45801 0.48975,-0.42502c2.82715,0.27902 5.646,0.59802 8.20215,1.98502c1.59668,0.866 2.7041,2.10699 2.78613,4.01401c0.10889,2.556 -1.63525,4.42297 -4.46338,4.82498c-0.80908,0.11502 -1.62207,0.203 -2.15771,0.17401z" fill="#f5921c" fill-opacity="1"></path></g></g></g></svg>