<svg xmlns="http://www.w3.org/2000/svg" width="15.756" height="18.907" viewBox="0 0 15.756 18.907">
  <g id="Group_1173" data-name="Group 1173" transform="translate(-7996.809 -215)">
    <path id="Path_698" data-name="Path 698" d="M8003.846,228.049c-2.127-2.114-3.363-3.535-5.161-5.565a1.184,1.184,0,0,1,.882-1.97h1.918l1.124-3.9a2.243,2.243,0,0,1,1.668-1.573,2.143,2.143,0,0,1,2.454,1.465l1.158,4.01h1.918a1.184,1.184,0,0,1,.882,1.97c-1.8,2.03-3.034,3.451-5.161,5.565A1.2,1.2,0,0,1,8003.846,228.049Z" fill="#fff"/>
    <path id="Path_699" data-name="Path 699" d="M8010.989,230.756h-12.6a1.576,1.576,0,1,0,0,3.151h12.6a1.576,1.576,0,1,0,0-3.151Z" fill="#fff"/>
  </g>
</svg>
