<?xml version="1.0" encoding="UTF-8"?>
<svg id="SVGDoc" width="45" height="72" xmlns="http://www.w3.org/2000/svg" version="1.1" xmlns:xlink="http://www.w3.org/1999/xlink" xmlns:avocode="https://avocode.com/" viewBox="0 0 45 72"><defs></defs><desc>Generated with Avocode.</desc><g><g><title>Group 1299</title><g><title>Path 795</title><path d="M0.85694,36.37399c1.54004,-2.59399 3.06641,-5.19598 4.62207,-7.78c3.54395,-5.88699 7.104,-11.76401 10.6543,-17.647c2.06689,-3.42499 4.125,-6.85599 6.19092,-10.28198c0.09912,-0.16501 0.23389,-0.30902 0.35205,-0.46301c0.3418,0.03799 0.30566,0.33401 0.35986,0.55402c0.05322,0.21399 0.02979,0.44 0.02979,0.66098c0.00098,8.03302 0.00244,16.065 0,24.09802c0,0.24597 0.00342,0.49197 -0.02979,0.73398c-0.01025,0.08401 -0.03418,0.168 -0.06592,0.24701c-0.72217,0.65298 -1.65332,0.94101 -2.51025,1.33099c-2.03174,0.923 -4.05908,1.858 -6.10107,2.76102c-2.49072,1.10199 -4.96387,2.245 -7.44482,3.36899c-1.71973,0.77899 -3.45605,1.526 -5.15381,2.35699c-0.26807,0.13101 -0.57715,0.47202 -0.90332,0.06z" fill="#9ca6d9" fill-opacity="1"></path></g><g><title>Path 796</title><path d="M22.83399,26.48199c-0.00195,-8.45599 -0.00293,-16.91299 -0.01172,-25.36899c-0.00098,-0.30402 0.12207,-0.64301 -0.146,-0.91101c0.26074,-0.15601 0.26367,-0.15698 0.43164,0.121c1.05322,1.745 2.10303,3.491 3.15527,5.23599c6.00391,9.96802 12.00781,19.936 18.00977,29.90601c0.09912,0.16501 0.17236,0.34601 0.25732,0.51999c0.14893,0.63303 -0.28613,0.444 -0.54736,0.345c-0.70996,-0.26898 -1.40283,-0.58798 -2.08984,-0.90799c-1.91113,-0.89099 -3.8291,-1.767 -5.76172,-2.608c-1.71045,-0.74298 -3.37207,-1.58301 -5.0791,-2.33398c-2.44531,-1.07501 -4.87598,-2.185 -7.29736,-3.315c-0.35498,-0.16602 -0.73779,-0.28799 -0.9209,-0.68301z" fill="#7984ca" fill-opacity="1"></path></g><g><title>Path 797</title><path d="M0.85694,36.37399c0.23633,0.13501 0.41797,-0.021 0.61523,-0.11099c2.90674,-1.32901 5.81689,-2.651 8.729,-3.96799c2.93896,-1.33002 5.86475,-2.68903 8.81396,-3.99902c1.26611,-0.56299 2.47314,-1.258 3.79785,-1.686c0.27002,0.27402 0.25098,0.62802 0.25195,0.96902c0.00537,7.022 0.00439,14.043 0.00195,21.064c0,0.349 -0.02686,0.689 -0.23584,0.98499c-2.20508,-1.28 -4.41602,-2.54999 -6.61182,-3.84399c-5.01221,-2.95401 -10.01709,-5.91699 -15.01611,-8.89099c-0.15918,-0.095 -0.66309,-0.06702 -0.34619,-0.51901z" fill="#7885ca" fill-opacity="1"></path></g><g><title>Path 798</title><path d="M22.83106,49.62799c-0.00586,-7.672 -0.01172,-15.345 -0.01709,-23.01801c0.00537,-0.043 0.01221,-0.086 0.02002,-0.12799c1.81299,0.91 3.67334,1.71701 5.52197,2.54901c2.41016,1.08398 4.78613,2.246 7.20703,3.30499c1.96436,0.85901 3.89307,1.79501 5.87402,2.621c0.82129,0.34201 1.66602,0.69199 2.4541,1.14099c0.16309,0.09302 0.52588,0.448 0.63916,-0.11301c0.4458,0.42001 0.38672,0.65402 -0.17627,0.98401c-7.03467,4.12601 -14.05078,8.28302 -21.07275,12.42999c-0.14502,0.086 -0.30029,0.15402 -0.4502,0.229z" fill="#5c6abe" fill-opacity="1"></path></g><g><title>Path 799</title><path d="M22.9751,71.784c-0.37891,0.29401 -0.38818,-0.15698 -0.479,-0.28198c-1.60791,-2.23001 -3.1958,-4.47501 -4.78906,-6.71701c-3.49805,-4.923 -7,-9.845 -10.49414,-14.771c-2.05957,-2.90402 -4.10791,-5.81601 -6.15967,-8.724c-0.06396,-0.091 -0.12012,-0.186 -0.10107,-0.35901c1.40479,0.83099 2.81104,1.66199 4.2168,2.49399c5.70605,3.375 11.41211,6.75101 17.12012,10.12402c0.20801,0.12299 0.41602,0.271 0.68408,0.22498c0.09277,0.155 0.09814,0.32602 0.09717,0.49902c-0.03223,5.44699 0.02002,10.89398 -0.02441,16.341c-0.00293,0.39297 -0.06055,0.78 -0.0708,1.16998z" fill="#9ca6d9" fill-opacity="1"></path></g><g><title>Path 800</title><path d="M22.9751,71.784c-0.28418,-0.21799 -0.19775,-0.56299 -0.19287,-0.81799c0.11768,-5.44501 0.00586,-10.892 0.04395,-16.33801c0.00195,-0.293 -0.03125,-0.591 0.14697,-0.854c4.41113,-2.608 8.81982,-5.22 13.23389,-7.823c2.57617,-1.51999 5.15918,-3.02798 7.73828,-4.54099c0.16602,0.02899 0.34766,0.034 0.38574,0.255c-4.07715,5.75198 -8.15283,11.505 -12.23096,17.25598c-3.04102,4.28802 -6.08301,8.57501 -9.125,12.86301z" fill="#7885ca" fill-opacity="1"></path></g><g><title>Path 801</title><path d="M44.33106,41.66501v0l-0.38574,-0.255v0l0.76074,-0.49301v0l0.08691,0.08801v0z" fill="#717994" fill-opacity="1"></path></g></g></g></svg>