<svg xmlns="http://www.w3.org/2000/svg" width="18.286" height="18.106" viewBox="0 0 18.286 18.106">
  <g id="Group_1176" data-name="Group 1176" transform="translate(-7997.187 -293.5)">
    <g id="Group_1175" data-name="Group 1175">
      <path id="Path_700" data-name="Path 700" d="M8014.33,295.605h-4.213a1.524,1.524,0,0,0-2.486-1.659l-1.3,1.3-1.3-1.3a1.523,1.523,0,0,0-2.485,1.659h-4.214a1.143,1.143,0,0,0-1.143,1.143v1.524a1.143,1.143,0,0,0,1.143,1.143h16a1.143,1.143,0,0,0,1.143-1.143v-1.524A1.143,1.143,0,0,0,8014.33,295.605Z" fill="#fff"/>
      <path id="Path_701" data-name="Path 701" d="M7999.788,311.606h5.78V300.939h-5.78a1.146,1.146,0,0,0-1.146,1.074,74.657,74.657,0,0,0,0,8.518A1.146,1.146,0,0,0,7999.788,311.606Z" fill="#fff"/>
      <path id="Path_702" data-name="Path 702" d="M8007.092,300.939v10.667h5.781a1.146,1.146,0,0,0,1.145-1.075,74.657,74.657,0,0,0,0-8.518,1.146,1.146,0,0,0-1.145-1.074Z" fill="#fff"/>
    </g>
  </g>
</svg>
