<svg xmlns="http://www.w3.org/2000/svg" width="17.42" height="15.044" viewBox="0 0 17.42 15.044">
  <g id="Group_1188" data-name="Group 1188" transform="translate(-7996.557 -379)">
    <g id="Group_1187" data-name="Group 1187">
      <path id="Path_708" data-name="Path 708" d="M8012.834,390.235q-7.564-.3-15.135,0a1.193,1.193,0,0,0-1.142,1.192V392.7a1.192,1.192,0,0,0,1.142,1.192q7.564.3,15.135,0a1.193,1.193,0,0,0,1.143-1.192v-1.276A1.193,1.193,0,0,0,8012.834,390.235Z" fill="#fff"/>
      <path id="Path_709" data-name="Path 709" d="M8012.834,384.692q-7.564-.3-15.135,0a1.193,1.193,0,0,0-1.142,1.192v1.276a1.193,1.193,0,0,0,1.142,1.193q7.564.3,15.135,0a1.194,1.194,0,0,0,1.143-1.193v-1.276A1.193,1.193,0,0,0,8012.834,384.692Z" fill="#fff"/>
      <path id="Path_710" data-name="Path 710" d="M8012.834,379.149q-7.564-.3-15.135,0a1.193,1.193,0,0,0-1.142,1.193v1.275a1.193,1.193,0,0,0,1.142,1.193q7.564.3,15.135,0a1.194,1.194,0,0,0,1.143-1.193v-1.275A1.194,1.194,0,0,0,8012.834,379.149Z" fill="#fff"/>
    </g>
  </g>
</svg>
