<svg xmlns="http://www.w3.org/2000/svg" width="148.792" height="56.132" viewBox="0 0 148.792 56.132">
  <path id="Path_455" data-name="Path 455" d="M6120.942,1358.729l-2.637-30.7a11.431,11.431,0,0,0-12.33-10.381l-30.7,2.637a11.431,11.431,0,0,0-10.38,12.331l2.637,30.7a11.43,11.43,0,0,0,12.33,10.38l30.7-2.636A11.432,11.432,0,0,0,6120.942,1358.729Zm-27.205-29.2a3.8,3.8,0,0,1,3.79-3.79h5.144v5.144a3.8,3.8,0,0,1-3.79,3.79h-5.144Zm-7.892-.812h3.43a2.534,2.534,0,0,1,2.526,2.526v3.43h-3.429a2.534,2.534,0,0,1-2.527-2.527Zm5.956,31.074a2.54,2.54,0,0,1-2.532,2.533h-6.847a2.54,2.54,0,0,1-2.532-2.533v-6.846a2.54,2.54,0,0,1,2.532-2.533h6.847a2.54,2.54,0,0,1,2.532,2.533Zm.044-13.8a2.54,2.54,0,0,1-2.532,2.532h-6.847a2.54,2.54,0,0,1-2.533-2.532v-6.847a2.541,2.541,0,0,1,2.533-2.533h6.847a2.541,2.541,0,0,1,2.532,2.533Zm13.8,13.8a2.541,2.541,0,0,1-2.533,2.533h-6.847a2.541,2.541,0,0,1-2.532-2.533v-6.846a2.541,2.541,0,0,1,2.532-2.533h6.847a2.541,2.541,0,0,1,2.533,2.533Zm0-13.847a2.54,2.54,0,0,1-2.533,2.532h-6.847a2.54,2.54,0,0,1-2.532-2.532V1339.1a2.54,2.54,0,0,1,2.532-2.532h6.847a2.54,2.54,0,0,1,2.533,2.532Zm39.951-4.8h-2.079a.455.455,0,0,1-.515-.514v-14.707a.454.454,0,0,1,.515-.514h5.824a4.091,4.091,0,0,1,2.985,1.052,3.952,3.952,0,0,1,1.076,2.961v1.909a3.57,3.57,0,0,1-2.178,3.67v.1l2.619,5.457q.219.588-.417.588h-1.982a1.506,1.506,0,0,1-.635-.1.724.724,0,0,1-.319-.416l-2.447-5.286h-1.639c-.2,0-.294.09-.294.269v5.017A.455.455,0,0,1,6145.6,1341.146Zm.784-8.3h2.4a1.69,1.69,0,0,0,1.152-.33,1.375,1.375,0,0,0,.366-1.065v-1.909a1.455,1.455,0,0,0-.366-1.1,1.65,1.65,0,0,0-1.152-.342h-2.4a.238.238,0,0,0-.27.269v4.209A.238.238,0,0,0,6146.384,1332.85Zm18.132,8.3h-5.408a4.1,4.1,0,0,1-2.986-1.028,3.955,3.955,0,0,1-1.052-2.961v-4.5a3.955,3.955,0,0,1,1.052-2.961,4.094,4.094,0,0,1,2.986-1.027h1.933a4.1,4.1,0,0,1,2.986,1.027,3.955,3.955,0,0,1,1.051,2.961v3.108a.454.454,0,0,1-.514.514h-6.142c-.2,0-.293.09-.293.269v.539a1.5,1.5,0,0,0,.331,1.089,1.536,1.536,0,0,0,1.113.33h4.943c.342,0,.514.179.514.538v1.615a.521.521,0,0,1-.111.379A.563.563,0,0,1,6164.516,1341.146Zm-6.094-6.95h3.329a.237.237,0,0,0,.268-.269v-1.175a1.185,1.185,0,0,0-1.419-1.419h-1.027a1.187,1.187,0,0,0-1.42,1.419v1.175A.239.239,0,0,0,6158.422,1334.2Zm13.453,6.95h-2.79a.573.573,0,0,1-.587-.514l-2.447-11.453c-.066-.342.057-.513.367-.513h2.348a.518.518,0,0,1,.588.513l1.1,8.37h.2l1.738-8.37a.521.521,0,0,1,.563-.513h2.153a.566.566,0,0,1,.612.513l1.689,8.37h.2l1.125-8.37a.536.536,0,0,1,.588-.513h2.349c.326,0,.449.171.367.513l-2.446,11.453a.555.555,0,0,1-.589.514h-2.789a.553.553,0,0,1-.587-.514l-1.493-8.271h-.2l-1.468,8.271A.536.536,0,0,1,6171.875,1341.146Zm15.8,0h-.587a4.1,4.1,0,0,1-2.985-1.028,3.952,3.952,0,0,1-1.053-2.961v-4.5a3.952,3.952,0,0,1,1.053-2.961,4.1,4.1,0,0,1,2.985-1.027h5.653q.538,0,.538.513v11.453c0,.342-.179.514-.538.514h-2.055a.454.454,0,0,1-.514-.514v-.808h-.1a1.859,1.859,0,0,1-.955.991A3.287,3.287,0,0,1,6187.676,1341.146Zm2.5-4.552v-4.967c0-.18-.1-.27-.294-.27h-2.3a1.5,1.5,0,0,0-1.1.33,1.583,1.583,0,0,0-.318,1.114v4.209a1.582,1.582,0,0,0,.318,1.114,1.5,1.5,0,0,0,1.1.33h.906Q6190.173,1338.454,6190.173,1336.594Zm7.809,4.552h-2.08a.455.455,0,0,1-.514-.514v-11.453a.454.454,0,0,1,.514-.513h2.08a.454.454,0,0,1,.515.513v.832h.1a1.911,1.911,0,0,1,.954-1,3.2,3.2,0,0,1,1.444-.342h.882q.489,0,.489.513v1.689a.567.567,0,0,1-.111.4.46.46,0,0,1-.378.085h-1.689q-1.689,0-1.688,1.909v7.366A.455.455,0,0,1,6197.982,1341.146Zm10.058,0h-1a3.728,3.728,0,0,1-2.851-1.028,4.161,4.161,0,0,1-.967-2.961v-4.5a4.161,4.161,0,0,1,.967-2.961,3.728,3.728,0,0,1,2.851-1.027h1a3.277,3.277,0,0,1,1.444.33,1.854,1.854,0,0,1,.954.991h.1v-5.53a.454.454,0,0,1,.515-.514h2.08a.454.454,0,0,1,.513.514v16.175a.455.455,0,0,1-.513.514h-2.08a.455.455,0,0,1-.515-.514v-.808h-.1a1.854,1.854,0,0,1-.954.991A3.29,3.29,0,0,1,6208.04,1341.146Zm2.5-4.552v-3.377q0-1.859-1.689-1.86h-1.1a1.5,1.5,0,0,0-1.1.33,1.588,1.588,0,0,0-.317,1.114v4.209a1.587,1.587,0,0,0,.317,1.114,1.5,1.5,0,0,0,1.1.33h1.1Q6210.538,1338.454,6210.536,1336.594Zm-67.921,22.679v-.49a.454.454,0,0,1,.514-.514h2.079a.454.454,0,0,1,.514.514v.2a1.712,1.712,0,0,0,.368,1.272,1.987,1.987,0,0,0,1.345.343h1.15a1.421,1.421,0,0,0,1.713-1.737v-.294a1.226,1.226,0,0,0-.575-1.089,3.032,3.032,0,0,0-1.432-.453,15.6,15.6,0,0,1-1.847-.281,11.865,11.865,0,0,1-1.847-.539,2.89,2.89,0,0,1-1.431-1.3,4.789,4.789,0,0,1-.576-2.485v-.856a3.956,3.956,0,0,1,1.076-2.961,4.093,4.093,0,0,1,2.986-1.052h2.447a4.127,4.127,0,0,1,3.01,1.052,3.951,3.951,0,0,1,1.077,2.961v.465a.454.454,0,0,1-.514.514h-2.08a.454.454,0,0,1-.514-.514v-.147a1.754,1.754,0,0,0-.367-1.3,1.991,1.991,0,0,0-1.346-.343h-.955a1.844,1.844,0,0,0-1.357.379,2.229,2.229,0,0,0-.355,1.48v.465q0,1.152,2.006,1.322a12.408,12.408,0,0,1,3.7.832,3.137,3.137,0,0,1,1.431,1.309,4.571,4.571,0,0,1,.575,2.41v.833a3.952,3.952,0,0,1-1.076,2.961,4.091,4.091,0,0,1-2.985,1.052h-2.668a4.091,4.091,0,0,1-2.986-1.052A3.952,3.952,0,0,1,6142.615,1359.273Zm13.074-5.775h-.98a.623.623,0,0,1-.4-.1.523.523,0,0,1-.109-.392v-1.689a.453.453,0,0,1,.513-.513h.98a.238.238,0,0,0,.268-.269v-2.325q0-.515.539-.514h2.055a.454.454,0,0,1,.514.514v2.325c0,.179.1.269.294.269h1.908a.454.454,0,0,1,.514.513v1.689a.522.522,0,0,1-.11.379.566.566,0,0,1-.4.111h-1.908c-.2,0-.294.089-.294.269v5.408a1.463,1.463,0,0,0,.343,1.089,1.583,1.583,0,0,0,1.125.33h.979a.454.454,0,0,1,.514.514v1.688a.532.532,0,0,1-.11.379.568.568,0,0,1-.4.111h-1.492a4.142,4.142,0,0,1-3-1.028,3.9,3.9,0,0,1-1.064-2.936v-5.555A.237.237,0,0,0,6155.689,1353.5Zm10.563,9.788h-2.079a.455.455,0,0,1-.514-.514v-11.453a.454.454,0,0,1,.514-.513h2.079a.454.454,0,0,1,.515.513v.832h.1a1.916,1.916,0,0,1,.955-1,3.191,3.191,0,0,1,1.444-.342h.881c.325,0,.489.171.489.513v1.689a.567.567,0,0,1-.11.4.466.466,0,0,1-.379.086h-1.689q-1.687,0-1.688,1.908v7.366A.455.455,0,0,1,6166.252,1363.286Zm14.848,0h-5.407a4.094,4.094,0,0,1-2.985-1.028,3.953,3.953,0,0,1-1.054-2.961v-4.5a3.952,3.952,0,0,1,1.054-2.961,4.093,4.093,0,0,1,2.985-1.027h1.933a4.1,4.1,0,0,1,2.985,1.027,3.952,3.952,0,0,1,1.053,2.961v3.108a.454.454,0,0,1-.515.514h-6.142q-.294,0-.294.269v.539a1.507,1.507,0,0,0,.331,1.089,1.541,1.541,0,0,0,1.114.33h4.942c.343,0,.515.18.515.538v1.615a.525.525,0,0,1-.111.379A.562.562,0,0,1,6181.1,1363.286Zm-6.093-6.95h3.329a.238.238,0,0,0,.269-.269v-1.175a1.187,1.187,0,0,0-1.42-1.419h-1.027a1.187,1.187,0,0,0-1.42,1.419v1.175A.238.238,0,0,0,6175.007,1356.336Zm13.1,6.95h-.587a4.1,4.1,0,0,1-2.986-1.028,3.955,3.955,0,0,1-1.051-2.961v-4.5a3.955,3.955,0,0,1,1.051-2.961,4.1,4.1,0,0,1,2.986-1.027h5.654c.357,0,.537.171.537.513v11.453c0,.342-.18.514-.537.514h-2.057a.454.454,0,0,1-.513-.514v-.808h-.1a1.851,1.851,0,0,1-.956.991A3.28,3.28,0,0,1,6188.111,1363.286Zm2.5-4.552v-4.967c0-.18-.1-.269-.294-.269h-2.3a1.49,1.49,0,0,0-1.1.33,1.578,1.578,0,0,0-.319,1.113v4.209a1.581,1.581,0,0,0,.319,1.114,1.494,1.494,0,0,0,1.1.33h.906Q6190.608,1360.594,6190.608,1358.734Zm7.809,4.552h-2.08a.454.454,0,0,1-.514-.514v-11.453a.454.454,0,0,1,.514-.513h2.08a.454.454,0,0,1,.513.513v.808h.1a2.2,2.2,0,0,1,.992-.954,3.382,3.382,0,0,1,1.6-.367h.685a3.278,3.278,0,0,1,3.059,1.566,2.97,2.97,0,0,1,2.863-1.566h.71a3.731,3.731,0,0,1,2.851,1.027,4.165,4.165,0,0,1,.966,2.961v7.978a.454.454,0,0,1-.513.514h-2.081a.454.454,0,0,1-.513-.514v-7.831a1.583,1.583,0,0,0-.318-1.113,1.492,1.492,0,0,0-1.1-.33h-.612q-1.686,0-1.688,1.883v7.391c0,.342-.18.514-.538.514h-2.055a.454.454,0,0,1-.514-.514v-7.831a1.217,1.217,0,0,0-1.445-1.443h-.759q-1.686,0-1.688,1.859v7.415A.454.454,0,0,1,6198.417,1363.286Z" transform="translate(-6064.852 -1317.606)" fill="#fff"/>
</svg>
