<svg xmlns="http://www.w3.org/2000/svg" width="15.942" height="24.2" viewBox="0 0 15.942 24.2">
  <g id="Group_1192" data-name="Group 1192" transform="translate(-7998.755 -1136.47)">
    <g id="Group_1191" data-name="Group 1191">
      <path id="Path_711" data-name="Path 711" d="M8007.187,1136.47c.465.064.932.113,1.393.193a9.085,9.085,0,0,1,3.282,1.191,6.179,6.179,0,0,1,1.684,1.511,5.777,5.777,0,0,1,1.145,3.323,5.218,5.218,0,0,1-.76,3.044,7.685,7.685,0,0,1-1.318,1.582,25.632,25.632,0,0,1-2.8,2.147,4.206,4.206,0,0,0-1.59,2.144,3.807,3.807,0,0,1-.538.993,1.587,1.587,0,0,1-1.171.555,2.095,2.095,0,0,1-2.5-2.248,3.889,3.889,0,0,1,1.083-2.576,19.11,19.11,0,0,1,2.54-2.188,7.162,7.162,0,0,0,1.718-1.781,2.831,2.831,0,0,0-.543-3.488,3.071,3.071,0,0,0-1.4-.6,4.518,4.518,0,0,0-2.158.123,2.9,2.9,0,0,0-1.7,1.563c-.21.406-.4.822-.608,1.229a2.484,2.484,0,0,1-.8.973,2.307,2.307,0,0,1-1.8.3,1.987,1.987,0,0,1-1.024-.508,1.885,1.885,0,0,1-.567-1.466,4.717,4.717,0,0,1,.859-2.621,7.64,7.64,0,0,1,3.634-2.784,9.331,9.331,0,0,1,2.474-.576.723.723,0,0,0,.111-.028Z" fill="#fff"/>
      <path id="Path_712" data-name="Path 712" d="M8005.873,1160.67a7.7,7.7,0,0,1-1.047-.418,2.66,2.66,0,0,1-.986-3.459,2.675,2.675,0,1,1,4.27,3.1,2.8,2.8,0,0,1-1.416.738.959.959,0,0,0-.126.041Z" fill="#fff"/>
    </g>
  </g>
</svg>
