<svg xmlns="http://www.w3.org/2000/svg" width="24.092" height="24.102" viewBox="0 0 24.092 24.102">
  <g id="Group_329" data-name="Group 329" transform="translate(-5715.875 -5271.212)" opacity="0.8">
    <g id="Group_328" data-name="Group 328">
      <g id="Group_327" data-name="Group 327">
        <path id="Path_147" data-name="Path 147" d="M5739.214,5291.069a2.47,2.47,0,1,1-3.495,3.489q-1.691-1.687-3.377-3.378c-.185-.184-.375-.363-.551-.556-.091-.1-.157-.1-.268-.03a10.409,10.409,0,1,1,5.148-8.887,10.517,10.517,0,0,1-1.414,5.147.2.2,0,0,0,.039.3Q5737.26,5289.106,5739.214,5291.069Zm-5.015-9.4a7.928,7.928,0,1,0-7.989,7.876A7.915,7.915,0,0,0,5734.2,5281.669Z" fill="#dbddeb"/>
      </g>
    </g>
  </g>
</svg>
