<svg xmlns="http://www.w3.org/2000/svg" width="24.254" height="24.247" viewBox="0 0 24.254 24.247">
  <g id="Group_1184" data-name="Group 1184" transform="translate(-7993.411 -1055.307)">
    <g id="Group_1183" data-name="Group 1183">
      <g id="Group_1182" data-name="Group 1182">
        <path id="Path_707" data-name="Path 707" d="M8017.519,1066.114a5.729,5.729,0,0,1-.008,2.606,1.032,1.032,0,0,1-1.03.835c-.381.03-.757.1-1.14.111a.42.42,0,0,0-.436.36,8.669,8.669,0,0,1-.9,2.178.429.429,0,0,0,.061.581c.275.3.525.624.779.943a1.01,1.01,0,0,1,.084,1.256,5.639,5.639,0,0,1-1.83,1.818,1.038,1.038,0,0,1-1.3-.107c-.3-.243-.594-.479-.883-.728a.449.449,0,0,0-.6-.063,8.552,8.552,0,0,1-2.223.922.364.364,0,0,0-.311.355c-.032.328-.072.656-.1.984a1.234,1.234,0,0,1-1.312,1.336c-.285.028-.572.039-.783.053a5.267,5.267,0,0,1-1.365-.142,1.018,1.018,0,0,1-.819-.983c-.042-.4-.082-.811-.114-1.218a.365.365,0,0,0-.311-.379,8.7,8.7,0,0,1-2.271-.941.389.389,0,0,0-.514.046q-.438.367-.883.729a1.051,1.051,0,0,1-1.386.108,5.743,5.743,0,0,1-1.745-1.727,1.027,1.027,0,0,1,.1-1.383c.251-.31.5-.621.765-.921a.348.348,0,0,0,.039-.466,8.838,8.838,0,0,1-.951-2.295.362.362,0,0,0-.379-.313c-.365-.012-.725-.076-1.087-.107a1.071,1.071,0,0,1-1.128-.948,5.733,5.733,0,0,1,0-2.4,1.041,1.041,0,0,1,1.042-.92c.406-.044.811-.082,1.218-.111a.316.316,0,0,0,.328-.265,9.062,9.062,0,0,1,.978-2.34.366.366,0,0,0-.059-.47c-.247-.3-.5-.6-.741-.908a1.05,1.05,0,0,1-.1-1.387,5.729,5.729,0,0,1,1.731-1.74,1.029,1.029,0,0,1,1.343.084c.319.254.635.511.942.78a.37.37,0,0,0,.491.051,9.072,9.072,0,0,1,2.273-.939.361.361,0,0,0,.3-.364c.03-.38.07-.76.107-1.14a1.071,1.071,0,0,1,1.007-1.13,5.868,5.868,0,0,1,2.328.025,1.068,1.068,0,0,1,.938,1.058c.042.379.08.759.108,1.139a.423.423,0,0,0,.359.434,8.642,8.642,0,0,1,2.154.888.456.456,0,0,0,.624-.069c.284-.266.6-.5.9-.746a1.016,1.016,0,0,1,1.276-.1,5.636,5.636,0,0,1,1.831,1.853,1.034,1.034,0,0,1-.12,1.278c-.247.3-.493.6-.745.9a.445.445,0,0,0-.062.585,8.848,8.848,0,0,1,.885,2.1c.109.379.15.4.539.427.414.033.828.082,1.24.137A.962.962,0,0,1,8017.519,1066.114Zm-6.643,1.324a5.337,5.337,0,1,0-5.354,5.329A5.322,5.322,0,0,0,8010.876,1067.438Z" fill="#fff"/>
      </g>
    </g>
  </g>
</svg>
